<svg width="100%" height="100%" viewBox="0 0 409 68" version="1.1" xmlns="http://www.w3.org/2000/svg" xml:space="preserve" fill-rule="evenodd" clip-rule="evenodd" stroke-linejoin="round" stroke-miterlimit="1.414"><g fill="#fff" fill-rule="nonzero"><path d="M14.829 33.438a14.12 14.12 0 0 0-.282 2.784c0 8.915 8.352 16.136 18.656 16.136 10.303 0 18.656-7.222 18.656-16.136 0-.947-.101-1.879-.283-2.784-3.873-3.97-10.651-6.609-18.373-6.609-7.723 0-14.502 2.639-18.374 6.609zM42.04 37.63a8.835 8.835 0 0 1-8.837 8.836 8.836 8.836 0 0 1-8.139-12.282 3.679 3.679 0 0 0 3.475 2.464 3.684 3.684 0 1 0 1.218-7.158 8.84 8.84 0 0 1 12.283 8.14z"/><path d="M33.203 0C11.925 7.78-3.311 32.049.619 56.561c0 0 12.716 11.439 32.583 11.439 19.867 0 32.583-11.439 32.583-11.439C69.716 32.049 54.48 7.78 33.203 0zm28.062 53.832s-4.664 3.957-11.7 6.155c-.268.085-.581.091-.861-.073-.411-.239-.521-.721-.277-1.143a1.4 1.4 0 0 1 .263-.295c1.689-1.389 3.102-3.119 4.26-5.125a18.787 18.787 0 0 0 2.426-11.41l-.003-.008c-1.204 6.194-4.984 11.852-10.877 15.256-12.528 7.231-28.317 5.331-39.353-3.355 0 0-1.096-6.019.518-13.211.061-.273.212-.548.495-.707.413-.238.884-.094 1.127.33.041.068.102.236.125.375.357 2.156 1.148 4.244 2.307 6.252a18.8 18.8 0 0 0 8.667 7.806 22.532 22.532 0 0 1-4.737-5.757 22.47 22.47 0 0 1-3.019-11.919c.271-14.205 9.723-26.636 22.576-31.775 0 0 5.759 2.062 11.182 7.054.207.191.367.46.366.784-.003.476-.362.812-.851.812a1.42 1.42 0 0 1-.388-.079c-2.047-.77-4.25-1.13-6.568-1.13-4.147 0-7.98 1.338-11.093 3.605l-.004.004c6.518-2.255 13.615-1.35 19.295 2.178 12.095 7.356 18.095 21.716 16.124 35.376z"/></g><path d="M80.235 15.819h9.362v38.528h-9.362zm47.347 1.447l-.664 8.153c-2.539-1.609-5.598-2.415-9.181-2.415-3.583 0-6.583 1.118-8.999 3.352-2.416 2.233-3.622 5.143-3.622 8.726 0 3.585 1.226 6.482 3.684 8.696 2.455 2.215 5.533 3.322 9.239 3.322 3.986 0 7.146-.764 9.48-2.295l-.785 8.395c-2.336 1.369-5.698 2.055-10.084 2.055a22.38 22.38 0 0 1-7.581-1.33 22.83 22.83 0 0 1-6.733-3.774c-2.012-1.632-3.634-3.755-4.86-6.372-1.229-2.617-1.843-5.514-1.843-8.696 0-4.227 1.066-7.91 3.202-11.051 2.133-3.14 4.759-5.445 7.88-6.915 3.118-1.469 6.431-2.204 9.935-2.204 4.589-.001 8.233.783 10.932 2.353zm45.35 17.756c0 5.998-2.063 10.868-6.189 14.613-4.128 3.745-8.989 5.618-14.584 5.618-5.556 0-10.399-1.873-14.525-5.618-4.126-3.745-6.189-8.615-6.189-14.613 0-5.919 2.063-10.75 6.189-14.495 4.126-3.743 8.969-5.615 14.525-5.615 3.583 0 6.944.806 10.084 2.416 3.141 1.609 5.706 3.976 7.699 7.097 1.993 3.117 2.99 6.651 2.99 10.597zm-9.482 0c0-3.462-1.125-6.313-3.381-8.546-2.256-2.233-4.89-3.352-7.91-3.352-3.02 0-5.647 1.118-7.88 3.352-2.237 2.233-3.353 5.084-3.353 8.546 0 3.501 1.116 6.37 3.353 8.605 2.233 2.233 4.86 3.352 7.88 3.352 3.02 0 5.654-1.118 7.91-3.352 2.256-2.234 3.381-5.103 3.381-8.605zm51.092 19.748h-4.711l-14.977-16.427c-2.093-2.295-4.489-5.111-7.188-8.454l-.12.06c.12 2.74.182 5.436.182 8.092v16.307h-9.359V15.819h7.549l13.043 14.373c2.455 2.695 4.548 5.153 6.28 7.367l.121-.062a136.514 136.514 0 0 1-.182-7.185V15.819h9.361V54.77h.001zm29.649-31.282h-13.647v7.669h11.232v7.79h-11.232v15.399h-9.359V15.819h23.007v7.669h-.001zm4.828-7.669h9.362v38.528h-9.362zm52.782 38.951h-4.71l-14.978-16.427c-2.094-2.295-4.488-5.111-7.188-8.454l-.119.06c.119 2.74.182 5.436.182 8.092v16.307h-9.36V15.819h7.549l13.043 14.373c2.455 2.695 4.549 5.153 6.281 7.367l.12-.062c-.12-2.294-.183-4.688-.183-7.185V15.819h9.362V54.77h.001zm34.27-33.697c4.006 3.501 6.011 8.173 6.011 14.009 0 5.838-2.005 10.507-6.011 14.01-4.006 3.502-8.888 5.255-14.643 5.255h-12.984V15.819h12.984c5.755 0 10.637 1.75 14.643 5.254zm-6.883 22.312c2.354-1.951 3.531-4.718 3.531-8.303 0-3.583-1.178-6.35-3.531-8.303-2.356-1.951-5.305-2.929-8.849-2.929h-2.897v22.464h2.897c3.544-.001 6.493-.976 8.849-2.929zm42.482 10.962h-24.156V15.819h22.465v7.669h-13.105v7.669h10.689v7.79h-10.689v7.73h14.797v7.67h-.001zm37.682 0h-10.449l-10.386-15.159h-3.32v15.159h-8.998V15.819h14.371c3.421 0 6.351 1.066 8.788 3.199 2.436 2.136 3.651 4.952 3.651 8.456 0 2.172-.563 4.126-1.69 5.858-1.127 1.73-2.535 2.998-4.227 3.804l12.26 17.211zm-15.339-26.873c0-1.369-.475-2.425-1.421-3.172-.945-.745-2.083-1.115-3.41-1.115h-3.985v8.635h3.985c1.327 0 2.465-.371 3.41-1.118.947-.744 1.421-1.822 1.421-3.23z" fill="#fff" fill-rule="nonzero"/></svg>